<svg width="220" height="33" viewBox="0 0 220 33" fill="none" xmlns="http://www.w3.org/2000/svg">

<path fill-rule="evenodd" clip-rule="evenodd" d="M13.1064 32.9999C13.1064 32.9999 0 26.5173 0 14.4114V0.629272H26.2613V14.4114C26.2613 26.5152 13.1064 32.9999 13.1064 32.9999Z" fill="#009DE0"/>
<path d="M20.1201 11.0835H19.0275V19.0693H16.6607V11.0835H15.5702V9.41956H20.1201V11.0835Z" fill="white"/>
<path d="M9.55619 19.0631H7.19138L7.19339 9.41956H9.55417L9.55619 19.0631Z" fill="white"/>
<path d="M15.4692 3.78406C13.5123 3.78406 11.925 4.80646 11.925 6.78202V22.0183C11.925 23.6904 11.925 24.5193 10.7477 24.5193C9.65312 24.5193 9.55619 23.6924 9.55619 22.4745C9.55619 21.8166 9.02708 21.283 8.37479 21.283C7.7225 21.283 7.19339 21.8166 7.19339 22.4745H7.19138C7.19138 24.1527 8.7908 25.0142 10.7477 25.0142C12.7046 25.0142 14.2919 23.9898 14.2919 22.0162V6.78202C14.2919 5.10992 14.2919 4.281 15.4712 4.281C16.5658 4.281 16.6627 5.10789 16.6627 6.32377C16.6627 6.98161 17.1918 7.51522 17.8441 7.51522C18.4964 7.51522 19.0255 6.98161 19.0255 6.32377H19.0275C19.0275 4.6476 17.4281 3.78406 15.4692 3.78406Z" fill="white"/>
<path d="M150.253 5.60083V11.6069C150.253 12.9735 149.47 14.0774 147.319 14.0774C145.168 14.0774 144.385 12.9735 144.385 11.6069V5.60083H145.453V11.5438C145.453 12.5723 146.012 13.112 147.317 13.112C148.622 13.112 149.183 12.5723 149.183 11.5438V5.60083H150.251H150.253Z" fill="#45555F"/>
<path d="M153.115 6.84116V13.9511H152.095V5.60083H153.563L157.17 12.7475V5.60083H158.19V13.9532H156.722L153.115 6.84319V6.84116Z" fill="#45555F"/>
<path d="M161.407 13.9511H160.339V5.60083H161.407V13.9532V13.9511Z" fill="#45555F"/>
<path d="M162.863 5.60083H163.895L166.32 13.0122L168.746 5.60083H169.778L167.043 13.9532H165.601L162.867 5.60083H162.863Z" fill="#45555F"/>
<path d="M171.011 5.60083H175.884V6.56621H172.08V9.18739H175.612V10.1528H172.08V12.9878H175.897V13.9532H171.009V5.60083H171.011Z" fill="#45555F"/>
<path d="M180.386 10.9308H178.358V13.9532H177.29V5.60083H180.449C182.226 5.60083 182.848 6.37883 182.848 7.65786V8.86152C182.848 9.85134 182.486 10.5295 181.529 10.8045L183.68 13.9511H182.448L180.384 10.9287L180.386 10.9308ZM180.412 6.56621H178.36V9.97761H180.412C181.432 9.97761 181.779 9.68841 181.779 8.87374V7.67008C181.779 6.84319 181.432 6.56621 180.412 6.56621Z" fill="#45555F"/>
<path d="M186.64 14.0774C185.845 14.0774 184.887 13.9267 184.178 13.6375L184.352 12.7597C185.111 12.9979 185.907 13.1242 186.664 13.1242C187.995 13.1242 188.268 12.7739 188.268 11.8208C188.268 10.6924 188.256 10.5927 186.551 10.2037C184.55 9.75151 184.314 9.36251 184.314 7.63339C184.314 6.17921 184.912 5.47656 186.961 5.47656C187.682 5.47656 188.541 5.57636 189.199 5.75151L189.112 6.66597C188.454 6.51526 187.67 6.42768 186.986 6.42768C185.63 6.42768 185.382 6.70263 185.382 7.67005C185.382 8.82279 185.382 8.87371 187.024 9.28715C189.225 9.83909 189.336 10.165 189.336 11.7943C189.336 13.2485 188.914 14.0774 186.638 14.0774H186.64Z" fill="#45555F"/>
<path d="M191.933 13.9511H190.865V5.60083H191.933V13.9532V13.9511Z" fill="#45555F"/>
<path d="M196.552 5.60083C198.579 5.60083 199.214 6.666 199.214 7.99594V11.5581C199.214 12.888 198.579 13.9532 196.552 13.9532H193.654V5.60083H196.552ZM194.724 12.9858H196.515C197.772 12.9858 198.143 12.4583 198.143 11.4807V8.06926C198.143 7.09166 197.77 6.56417 196.515 6.56417H194.724V12.9837V12.9858Z" fill="#45555F"/>
<path d="M207.035 13.9511H205.953L205.268 11.945H201.75L201.077 13.9511H199.995L202.792 5.59875H204.234L207.031 13.9511H207.035ZM203.515 6.3788L202.035 11.0061H204.993L203.513 6.3788H203.515Z" fill="#45555F"/>
<path d="M210.902 5.60083C212.93 5.60083 213.564 6.666 213.564 7.99594V11.5581C213.564 12.888 212.93 13.9532 210.902 13.9532H208.004V5.60083H210.902ZM209.075 12.9858H210.866C212.122 12.9858 212.494 12.4583 212.494 11.4807V8.06926C212.494 7.09166 212.12 6.56417 210.866 6.56417H209.075V12.9837V12.9858Z" fill="#45555F"/>
<path d="M215.113 5.60083H219.986V6.56621H216.181V9.18739H219.711V10.1528H216.181V12.9878H219.998V13.9532H215.111V5.60083H215.113Z" fill="#45555F"/>
<path d="M147.345 16.5825C149.373 16.5825 150.007 17.6477 150.007 18.9776V22.5397C150.007 23.8697 149.373 24.9349 147.345 24.9349H144.447V16.5825H147.345ZM145.516 23.9674H147.307C148.563 23.9674 148.935 23.44 148.935 22.4624V19.051C148.935 18.0734 148.561 17.5459 147.307 17.5459H145.516V23.9654V23.9674Z" fill="#45555F"/>
<path d="M151.213 16.5825H156.086V17.5479H152.281V20.169H155.811V21.1344H152.281V23.9674H156.098V24.9328H151.21V16.5804L151.213 16.5825Z" fill="#45555F"/>
<path d="M161.296 23.9674H164.888V24.9328H160.225V16.5804H161.294V23.9654L161.296 23.9674Z" fill="#45555F"/>
<path d="M166.779 24.9328H165.71V16.5804H166.779V24.9328Z" fill="#45555F"/>
<path d="M170.347 25.0591C169.551 25.0591 168.594 24.9084 167.885 24.6191L168.059 23.7413C168.818 23.9796 169.614 24.1059 170.371 24.1059C171.702 24.1059 171.975 23.7556 171.975 22.8024C171.975 21.6741 171.963 21.5743 170.258 21.1853C168.257 20.7332 168.021 20.3462 168.021 18.6151C168.021 17.1609 168.618 16.4583 170.67 16.4583C171.391 16.4583 172.249 16.558 172.908 16.7332L172.821 17.6477C172.163 17.4969 171.379 17.4094 170.694 17.4094C169.339 17.4094 169.091 17.6864 169.091 18.6517C169.091 19.8045 169.091 19.8554 170.733 20.2688C172.934 20.8208 173.045 21.1466 173.045 22.776C173.045 24.2301 172.623 25.0591 170.347 25.0591Z" fill="#45555F"/>
<path d="M174.202 24.9328V16.5804H177.397C178.702 16.5804 179.35 17.169 179.35 18.2729V19.2383C179.35 19.8778 179.14 20.3544 178.405 20.6293C179.126 20.7556 179.623 21.2444 179.623 22.1344V23.1385C179.623 24.3055 178.815 24.9307 177.571 24.9307H174.2L174.202 24.9328ZM178.282 18.2994C178.282 17.7597 177.983 17.5092 177.336 17.5092H175.273V20.2179H177.163C177.971 20.2179 178.282 19.8411 178.282 19.2403V18.2994ZM178.554 22.1751C178.554 21.5112 178.181 21.1466 177.361 21.1466H175.273V24.0061H177.423C178.183 24.0061 178.554 23.6802 178.554 23.0529V22.1751Z" fill="#45555F"/>
<path d="M186.887 22.5254C186.887 23.9165 186.028 25.059 183.89 25.059C181.751 25.059 180.893 23.9185 180.893 22.5254V18.9898C180.893 17.5987 181.751 16.4562 183.89 16.4562C186.028 16.4562 186.887 17.5967 186.887 18.9898V22.5254ZM181.961 22.501C181.961 23.5295 182.583 24.1059 183.888 24.1059C185.192 24.1059 185.814 23.5295 185.814 22.501V19.0142C185.814 17.9857 185.192 17.4093 183.888 17.4093C182.583 17.4093 181.961 17.9857 181.961 19.0142V22.501Z" fill="#45555F"/>
<path d="M194.508 24.9328H193.426L192.741 22.9267H189.223L188.553 24.9328H187.47L190.267 16.5804H191.709L194.506 24.9328H194.508ZM190.99 17.3584L189.51 21.9857H192.468L190.988 17.3584H190.99Z" fill="#45555F"/>
<path d="M39.7373 8.86355H34.3917V5.64563H48.7058V8.86355H43.3602V24.9511H39.7393V8.86355H39.7373Z" fill="#45555F"/>
<path d="M51.008 5.64563H62.7351V8.86355H54.6289V13.5295H62.103V16.7475H54.6289V21.7332H62.7351V24.9511H51.008V5.64563Z" fill="#45555F"/>
<path d="M65.3261 10.9512C65.3261 7.41347 67.3678 5.35645 72.1378 5.35645C73.919 5.35645 75.7587 5.58862 77.34 5.99392L76.9381 9.15278C75.3851 8.86357 73.5757 8.65991 72.2529 8.65991C69.7528 8.65991 68.947 9.52956 68.947 11.5866V19.0082C68.947 21.0672 69.7528 21.9369 72.2529 21.9369C73.5757 21.9369 75.3851 21.7353 76.9381 21.444L77.34 24.6049C75.7587 25.0102 73.919 25.2424 72.1378 25.2424C67.3658 25.2424 65.3261 23.1833 65.3261 19.6477V10.9512Z" fill="#45555F"/>
<path d="M84.0346 10.3137V24.9532H80.4984V5.64563H85.327L92.5992 20.3137V5.64563H96.1353V24.9532H91.3067L84.0346 10.3137Z" fill="#45555F"/>
<path d="M103.609 24.9532H99.9884V5.64563H103.609V24.9532Z" fill="#45555F"/>
<path d="M107.192 10.9512C107.192 7.41347 109.234 5.35645 114.004 5.35645C115.785 5.35645 117.625 5.58862 119.206 5.99392L118.804 9.15278C117.251 8.86357 115.441 8.65991 114.119 8.65991C111.619 8.65991 110.813 9.52956 110.813 11.5866V19.0082C110.813 21.0672 111.619 21.9369 114.119 21.9369C115.441 21.9369 117.251 21.7353 118.804 21.444L119.206 24.6049C117.625 25.0102 115.785 25.2424 114.004 25.2424C109.232 25.2424 107.192 23.1833 107.192 19.6477V10.9512Z" fill="#45555F"/>
<path d="M136.046 19.2994C136.046 22.5173 134.206 25.2424 128.802 25.2424C123.398 25.2424 121.558 22.5173 121.558 19.2994V11.2994C121.558 8.0815 123.398 5.35645 128.802 5.35645C134.206 5.35645 136.046 8.0815 136.046 11.2994V19.2994ZM125.181 19.0978C125.181 20.9247 126.1 22.0245 128.802 22.0245C131.504 22.0245 132.423 20.9226 132.423 19.0978V11.5031C132.423 9.6762 131.504 8.57437 128.802 8.57437C126.1 8.57437 125.181 9.6762 125.181 11.5031V19.0978Z" fill="#45555F"/>
<path d="M54.9278 2.55397C56.2647 1.72098 57.5753 0.89002 58.7123 0L60.0492 2.12424C58.7688 3.07128 57.7147 3.70265 56.1779 4.50713L54.9258 2.55601L54.9278 2.55397Z" fill="#45555F"/>

</svg>
